<?xml version="1.0" standalone="no"?>
<!DOCTYPE svg PUBLIC "-//W3C//DTD SVG 20010904//EN"
 "http://www.w3.org/TR/2001/REC-SVG-20010904/DTD/svg10.dtd">
<svg version="1.0" xmlns="http://www.w3.org/2000/svg"
 width="363.000000pt" height="363.000000pt" viewBox="0 0 363.000000 363.000000"
 preserveAspectRatio="xMidYMid meet">

<g transform="translate(0.000000,363.000000) scale(0.100000,-0.100000)"
fill="#000000" stroke="none">
<path d="M0 1815 l0 -1815 1815 0 1815 0 0 1815 0 1815 -1815 0 -1815 0 0
-1815z m1890 1029 c33 -41 60 -80 60 -86 0 -6 -18 -35 -40 -64 -22 -29 -40
-57 -40 -62 0 -5 13 -12 30 -15 39 -8 109 -73 131 -122 39 -85 17 -196 -51
-262 -19 -18 -32 -34 -29 -36 31 -26 88 -57 106 -57 12 0 100 24 195 54 311
97 492 136 631 136 195 -1 345 -84 426 -235 24 -46 26 -60 26 -170 0 -100 -4
-131 -24 -190 -34 -100 -89 -210 -177 -360 -42 -71 -90 -159 -106 -195 -33
-71 -78 -235 -78 -281 l0 -29 -1130 0 -1130 0 0 28 c-1 109 -64 274 -181 472
-164 277 -214 416 -207 573 3 72 10 104 30 149 52 112 154 191 289 223 162 38
353 8 768 -121 96 -30 184 -54 196 -54 16 0 74 32 104 57 3 2 -12 20 -32 41
-46 48 -67 98 -67 164 1 94 58 178 147 213 l42 17 -45 56 c-24 32 -44 62 -44
68 0 15 118 164 130 164 5 0 37 -34 70 -76z m1043 -2134 c16 0 17 -9 15 -92
-2 -51 -6 -92 -10 -90 -5 1 -512 2 -1128 2 l-1120 0 0 88 c0 49 2 91 4 93 2 2
503 3 1113 1 609 -1 1116 -2 1126 -2z"/>
<path d="M665 2181 c-121 -30 -203 -124 -213 -246 -9 -113 38 -237 176 -470
185 -313 305 -434 431 -435 36 0 49 6 77 34 30 30 34 40 34 88 l0 53 -86 85
c-47 47 -90 93 -96 104 -8 14 2 44 48 142 36 75 64 124 73 124 17 0 249 -227
256 -250 3 -9 -13 -58 -35 -109 l-40 -93 24 -52 c31 -64 43 -78 86 -105 89
-54 191 5 241 139 56 148 29 358 -75 605 -14 33 -28 86 -32 117 l-6 57 -137
56 c-277 114 -468 165 -611 164 -47 -1 -98 -4 -115 -8z"/>
<path d="M2730 2181 c-138 -26 -379 -107 -566 -193 -50 -22 -52 -24 -57 -73
-3 -27 -24 -97 -46 -153 -72 -181 -85 -240 -85 -387 0 -112 3 -138 23 -189 42
-106 130 -171 206 -152 39 10 96 66 121 120 25 54 26 49 -31 184 -21 52 -24
67 -14 80 23 32 244 242 254 242 10 0 125 -235 125 -255 0 -6 -43 -53 -95
-105 l-95 -95 0 -52 c0 -71 35 -113 101 -120 125 -14 261 121 451 447 161 276
200 425 144 545 -30 65 -68 102 -136 134 -46 21 -72 26 -155 27 -55 2 -120 -1
-145 -5z"/>
</g>
</svg>
