<?xml version="1.0" standalone="no"?>
<!DOCTYPE svg PUBLIC "-//W3C//DTD SVG 20010904//EN"
 "http://www.w3.org/TR/2001/REC-SVG-20010904/DTD/svg10.dtd">
<svg version="1.0" xmlns="http://www.w3.org/2000/svg"
 width="200.000000pt" height="200.000000pt" viewBox="0 0 200.000000 200.000000"
 preserveAspectRatio="xMidYMid meet">

<g transform="translate(0.000000,200.000000) scale(0.100000,-0.100000)"
fill="#000000" stroke="none">
<path d="M1055 1981 c-7 -13 -34 -244 -40 -341 -2 -41 -7 -86 -11 -99 -4 -15
-2 -26 7 -32 21 -13 59 -11 59 4 0 8 3 7 9 -2 8 -12 11 -10 15 10 4 21 21 189
32 325 2 27 6 70 8 97 l5 47 -39 0 c-21 0 -41 -4 -45 -9z"/>
<path d="M799 1976 c-3 -3 -2 -29 3 -58 4 -29 10 -69 13 -88 2 -19 13 -89 25
-155 11 -66 20 -129 20 -139 0 -21 27 -45 50 -46 13 0 13 1 0 11 -11 7 -6 8
19 4 l34 -7 -6 33 c-4 19 -9 53 -13 77 -4 23 -10 42 -14 42 -4 0 -7 28 -7 61
-1 34 -5 64 -10 68 -4 3 -9 20 -9 36 -2 74 -18 155 -29 155 -7 0 -25 3 -41 6
-16 3 -32 3 -35 0z"/>
<path d="M1287 1894 c-9 -25 -14 -51 -10 -58 3 -6 3 -8 -2 -4 -9 9 -68 -129
-60 -142 3 -5 0 -10 -6 -12 -6 -2 -12 -18 -13 -35 -1 -17 -5 -35 -9 -40 -5 -4
-5 1 -1 12 4 11 5 18 2 15 -6 -5 -48 -124 -48 -134 0 -3 16 -13 35 -22 32 -15
49 -14 51 4 3 25 20 72 36 97 10 17 18 37 18 45 0 8 7 28 15 44 9 16 13 36 10
43 -2 8 0 11 5 8 13 -8 13 1 -2 28 -10 19 -9 21 4 9 14 -11 18 -8 28 23 6 20
9 43 6 51 -3 9 -1 12 4 9 6 -4 10 5 10 20 0 15 4 24 10 20 6 -3 10 4 10 18 0
16 -8 28 -25 35 -41 19 -50 15 -68 -34z m30 14 c-3 -8 -6 -5 -6 6 -1 11 2 17
5 13 3 -3 4 -12 1 -19z"/>
<path d="M585 1908 c-22 -11 -41 -21 -42 -22 -1 -1 10 -29 26 -61 15 -33 61
-133 101 -222 40 -90 79 -163 86 -163 7 0 29 7 47 16 l34 16 -99 222 c-55 121
-102 224 -106 228 -4 3 -25 -3 -47 -14z"/>
<path d="M1543 1817 c3 -8 0 -18 -8 -21 -10 -3 -12 0 -8 12 3 9 -17 -16 -46
-56 -28 -41 -51 -77 -51 -80 0 -4 -9 -13 -21 -20 -12 -8 -18 -19 -15 -27 3 -8
0 -14 -6 -12 -7 1 -12 -2 -13 -8 0 -5 -11 -23 -25 -38 -14 -16 -35 -47 -47
-70 -13 -23 -23 -37 -23 -32 0 11 -20 -16 -20 -27 0 -4 14 -16 31 -28 29 -21
31 -21 49 -5 11 10 17 21 15 25 -3 4 2 11 11 14 10 4 13 13 9 28 -4 16 -3 19
3 9 7 -10 18 0 46 40 57 83 113 161 136 189 11 14 21 30 22 35 0 6 8 15 17 22
14 11 14 13 -4 28 -11 8 -29 20 -39 26 -16 9 -18 9 -13 -4z m-70 -152 c-3 -9
-8 -14 -10 -11 -3 3 -2 9 2 15 9 16 15 13 8 -4z m-29 -31 c3 -8 2 -12 -4 -9
-6 3 -10 10 -10 16 0 14 7 11 14 -7z m-91 -99 c-3 -9 -8 -14 -10 -11 -3 3 -2
9 2 15 9 16 15 13 8 -4z"/>
<path d="M386 1778 c-15 -8 -16 -12 -5 -19 10 -6 7 -8 -11 -7 -48 5 -25 -36
125 -219 l148 -182 38 31 c24 20 36 35 30 42 -42 55 -281 344 -292 353 -10 8
-20 8 -33 1z"/>
<path d="M1693 1628 c-21 -16 -36 -35 -35 -42 2 -6 0 -8 -4 -4 -6 6 -78 -44
-104 -72 -6 -6 -96 -79 -119 -96 -13 -10 -13 -14 -1 -30 13 -17 13 -18 0 -8
-16 12 -53 4 -64 -14 -3 -6 7 -24 23 -41 34 -36 17 -43 140 60 36 31 77 64 89
75 46 37 77 66 63 59 -9 -6 -12 -4 -7 4 4 6 12 9 17 6 5 -4 29 10 54 30 l45
37 -17 29 c-24 41 -37 42 -80 7z m-287 -287 c1 -6 0 -7 -3 -1 -2 5 -9 8 -13 5
-5 -3 -11 -1 -14 4 -4 5 2 8 11 7 9 -2 18 -8 19 -15z m79 9 c-3 -5 -11 -10
-16 -10 -6 0 -7 5 -4 10 3 6 11 10 16 10 6 0 7 -4 4 -10z"/>
<path d="M190 1574 c-17 -26 -20 -38 -12 -46 9 -9 18 -6 34 8 l23 19 -18 -22
c-21 -24 -41 -7 217 -192 l129 -93 19 23 c42 54 42 55 -14 97 -161 118 -341
242 -352 242 -2 0 -14 -16 -26 -36z"/>
<path d="M1876 1438 c5 -7 3 -8 -5 -3 -16 9 -62 -15 -54 -28 3 -6 1 -7 -5 -3
-16 10 -63 -4 -55 -17 3 -5 1 -7 -5 -4 -5 4 -18 4 -28 0 -16 -6 -16 -7 2 -14
14 -6 9 -8 -19 -8 -26 -1 -36 -5 -31 -13 4 -7 3 -8 -4 -4 -11 6 -33 -2 -169
-65 -63 -29 -83 -46 -40 -34 18 5 19 4 5 -5 -14 -8 -15 -16 -7 -39 10 -27 13
-29 40 -19 16 5 26 15 22 21 -3 6 -1 7 6 3 6 -4 45 9 85 28 41 20 80 36 86 36
6 0 8 5 4 12 -4 6 -3 8 3 5 6 -4 42 8 80 26 49 23 68 37 67 50 -2 13 -1 14 3
2 6 -21 38 -14 37 8 -2 15 1 16 14 5 13 -11 15 -11 10 2 -17 41 -34 70 -41 70
-5 0 -5 -5 -1 -12z"/>
<path d="M86 1362 c4 -18 2 -23 -3 -14 -7 9 -12 7 -20 -11 -10 -22 -8 -26 13
-36 14 -6 31 -11 39 -11 7 0 15 -4 17 -10 2 -8 361 -150 379 -150 10 0 39 84
31 90 -10 9 -333 129 -404 151 l-58 17 6 -26z"/>
<path d="M1915 1198 c-27 -5 -60 -9 -73 -9 -22 -1 -22 -2 -5 -14 16 -12 13
-13 -21 -5 -42 9 -93 4 -113 -12 -7 -5 -17 -7 -22 -3 -6 3 -39 1 -73 -5 -120
-20 -115 -18 -113 -48 5 -68 3 -65 38 -57 39 8 45 9 124 19 39 5 60 12 56 19
-4 6 3 8 18 4 13 -4 67 0 119 9 153 25 140 19 133 62 -3 20 -8 39 -12 43 -3 3
-28 1 -56 -3z m52 -70 c-3 -8 -6 -5 -6 6 -1 11 2 17 5 13 3 -3 4 -12 1 -19z
m-334 -55 c-7 -2 -19 -2 -25 0 -7 3 -2 5 12 5 14 0 19 -2 13 -5z"/>
<path d="M10 1095 c0 -40 3 -45 23 -46 37 -2 63 -6 88 -12 35 -8 370 -40 374
-35 2 2 5 24 7 48 l3 45 -110 12 c-60 7 -154 15 -208 18 -54 3 -109 8 -122 11
-19 5 -24 1 -28 -18 -4 -23 -4 -23 -6 0 -2 42 -21 22 -21 -23z"/>
<path d="M1513 993 c-16 -6 -17 -63 -2 -63 5 0 7 -5 4 -10 -9 -14 3 -16 160
-30 77 -6 156 -13 175 -15 19 -2 52 -6 72 -10 33 -6 37 -5 41 17 4 23 4 23 6
1 2 -43 21 -23 21 22 0 25 -3 45 -8 45 -4 0 -66 7 -137 15 -72 9 -144 13 -162
10 -18 -3 -34 -1 -38 5 -4 7 -25 8 -57 4 -37 -5 -49 -4 -44 5 7 11 -9 14 -31
4z"/>
<path d="M315 934 c-72 -13 -163 -29 -202 -36 -62 -11 -73 -16 -74 -33 -1 -17
-2 -17 -6 -2 -9 35 -19 16 -13 -25 4 -27 11 -42 18 -40 7 1 25 3 40 3 40 2 83
20 75 32 -3 6 -1 7 6 3 6 -4 9 -12 6 -17 -8 -12 -16 -13 180 20 188 31 176 23
159 99 -6 28 -18 27 -189 -4z"/>
<path d="M1467 826 c-9 -25 -15 -47 -14 -47 1 -1 15 -3 30 -5 16 -1 39 -9 50
-17 22 -14 122 -53 162 -64 11 -3 40 -14 64 -25 24 -11 52 -17 62 -15 10 3 17
0 16 -7 -1 -6 8 -10 21 -9 13 2 21 -1 17 -7 -4 -6 5 -10 21 -10 15 0 24 3 21
6 -3 4 3 18 14 32 l20 26 -37 19 c-71 37 -141 56 -154 44 -8 -9 -10 -8 -5 3 4
11 -4 19 -26 27 -18 7 -36 10 -40 7 -5 -3 -9 -1 -9 5 0 9 -51 25 -66 21 -4 -1
-10 2 -13 7 -3 5 -26 17 -51 27 -25 10 -50 20 -56 23 -7 2 -18 -16 -27 -41z
m34 1 c-10 -9 -11 -8 -5 6 3 10 9 15 12 12 3 -3 0 -11 -7 -18z m406 -143 c-3
-3 -12 -4 -19 -1 -8 3 -5 6 6 6 11 1 17 -2 13 -5z"/>
<path d="M372 767 c-81 -37 -131 -66 -128 -73 3 -7 -2 -10 -12 -7 -25 6 -130
-45 -137 -67 -3 -11 1 -32 9 -47 8 -15 15 -22 16 -15 0 7 5 10 11 6 15 -9 130
46 122 59 -3 5 3 6 14 3 18 -6 165 54 276 110 l27 15 -20 39 c-11 22 -26 40
-33 39 -6 0 -72 -28 -145 -62z m-212 -121 c0 -3 -4 -8 -10 -11 -5 -3 -10 -1
-10 4 0 6 5 11 10 11 6 0 10 -2 10 -4z"/>
<path d="M1407 713 c-25 -34 -25 -38 -10 -55 9 -10 22 -18 29 -18 7 0 26 -12
43 -26 17 -14 36 -22 42 -18 7 4 9 3 6 -2 -7 -12 140 -120 160 -117 8 0 12 -2
9 -5 -10 -9 55 -61 70 -55 9 3 14 0 12 -7 -6 -26 18 -19 39 11 20 30 20 33 5
49 -25 27 -142 111 -142 103 0 -4 -7 3 -16 15 -16 23 -41 31 -28 10 4 -8 3
-10 -2 -5 -5 5 -9 14 -9 20 0 7 -6 12 -13 12 -7 0 -16 5 -20 11 -4 6 -27 24
-52 41 -25 17 -54 40 -64 52 -11 11 -22 21 -26 21 -4 0 -19 -17 -33 -37z m137
-61 c2 -4 -4 -8 -14 -8 -10 0 -16 4 -14 8 3 4 9 8 14 8 5 0 11 -4 14 -8z m59
-99 c-7 -2 -21 -2 -30 0 -10 3 -4 5 12 5 17 0 24 -2 18 -5z"/>
<path d="M505 654 c-134 -110 -195 -167 -189 -175 3 -5 -1 -6 -9 -4 -16 7 -52
-29 -43 -43 3 -6 -2 -8 -12 -5 -32 8 -44 -19 -22 -52 11 -17 20 -25 20 -20 0
6 4 4 9 -4 7 -12 21 -4 68 36 32 28 74 61 93 74 19 13 79 59 132 102 l98 79
-32 39 c-17 21 -32 39 -33 39 0 0 -37 -30 -80 -66z m-125 -175 c17 -13 18 -17
5 -10 -33 17 -51 31 -40 31 6 0 21 -10 35 -21z"/>
<path d="M1317 616 l-37 -31 31 -38 c25 -30 34 -36 41 -25 8 10 9 9 4 -4 -3
-10 0 -21 7 -25 7 -5 20 -19 29 -33 25 -39 79 -95 89 -93 4 2 5 -5 2 -14 -5
-12 -2 -15 10 -10 17 6 37 -18 31 -38 -2 -5 14 -30 35 -54 l39 -43 31 23 c30
22 37 47 12 41 -7 -1 -10 2 -6 8 5 9 -36 67 -90 126 -5 6 -23 29 -40 50 -16
21 -41 52 -55 69 -14 16 -39 49 -54 73 -16 24 -32 44 -35 46 -3 2 -23 -10 -44
-28z"/>
<path d="M632 568 c-104 -143 -107 -149 -92 -159 13 -9 13 -10 0 -6 -15 4 -80
-77 -80 -98 0 -5 5 -2 11 8 5 9 14 17 19 17 6 0 2 -9 -7 -19 -9 -11 -22 -17
-29 -14 -8 3 -19 -7 -26 -24 -7 -15 -20 -33 -28 -40 -13 -10 -13 -14 5 -28 11
-8 29 -20 39 -26 16 -10 18 -9 13 10 -3 11 -1 21 3 21 5 0 10 -7 12 -17 2 -12
7 -8 18 13 8 16 23 38 33 48 9 11 17 25 17 30 0 6 8 16 18 23 13 7 18 21 17
42 -1 16 2 28 7 25 5 -4 7 -13 4 -21 -12 -31 16 2 90 104 l76 106 -23 19 c-54
42 -55 42 -97 -14z"/>
<path d="M1203 545 c-18 -8 -33 -18 -33 -23 0 -26 43 -102 58 -103 9 0 12 -3
5 -5 -7 -3 -9 -12 -6 -20 3 -7 10 -11 16 -7 5 3 7 1 4 -4 -9 -14 27 -95 38
-85 5 4 5 2 2 -5 -7 -11 55 -169 74 -187 6 -6 13 -6 21 2 7 7 16 12 21 12 5 0
-1 -9 -14 -20 -13 -10 -21 -19 -17 -20 15 0 78 34 78 42 0 5 -4 6 -10 3 -5 -3
-7 0 -5 7 3 8 -12 50 -33 93 -21 44 -44 95 -51 113 -8 17 -18 32 -23 32 -5 0
-7 4 -4 9 7 11 -4 42 -13 37 -3 -2 -7 7 -8 22 -2 33 -43 122 -57 122 -6 -1
-26 -7 -43 -15z"/>
<path d="M770 524 c-6 -16 -22 -58 -35 -94 -13 -36 -27 -78 -31 -95 -4 -16
-18 -55 -31 -85 -13 -30 -22 -63 -19 -72 2 -10 0 -16 -4 -13 -5 3 -11 2 -13
-2 -9 -14 -20 -88 -12 -81 4 4 14 1 22 -7 26 -27 47 -17 66 30 10 24 15 50 11
57 -4 7 -4 10 1 6 10 -10 57 102 50 120 -3 7 -1 11 4 7 5 -3 21 28 36 67 15
40 34 88 41 107 19 45 18 48 -13 59 -16 5 -36 13 -45 17 -13 5 -20 0 -28 -21z
m-36 -270 c3 -8 2 -12 -4 -9 -6 3 -10 10 -10 16 0 14 7 11 14 -7z m-26 -29
c-3 -3 -9 2 -12 12 -6 14 -5 15 5 6 7 -7 10 -15 7 -18z"/>
<path d="M1087 510 c-20 -4 -40 -10 -44 -13 -7 -8 15 -149 25 -157 4 -3 8 -30
10 -60 2 -30 8 -57 13 -61 6 -3 7 -18 3 -34 -5 -22 -4 -26 6 -20 8 5 11 4 7
-2 -4 -6 -4 -38 -1 -71 l7 -61 39 -6 c22 -4 44 -3 48 1 4 5 4 32 -1 59 -5 28
-11 68 -14 90 -3 22 -9 63 -15 90 -10 49 -12 68 -26 188 -4 31 -9 59 -13 60
-3 2 -23 0 -44 -3z"/>
<path d="M900 483 c0 -29 -15 -221 -26 -333 -3 -36 -9 -69 -11 -74 -3 -4 1
-12 8 -17 12 -7 11 -9 -1 -10 -8 0 -4 -5 10 -9 25 -8 25 -8 2 -9 -13 -1 -20
-5 -17 -11 8 -13 72 -13 80 -1 9 15 61 469 54 475 -2 2 -25 7 -51 10 -48 7
-48 7 -48 -21z"/>
<path d="M1500 331 c0 -6 4 -13 10 -16 6 -3 7 1 4 9 -7 18 -14 21 -14 7z"/>
</g>
</svg>
