<?xml version="1.0" standalone="no"?>
<!DOCTYPE svg PUBLIC "-//W3C//DTD SVG 20010904//EN"
 "http://www.w3.org/TR/2001/REC-SVG-20010904/DTD/svg10.dtd">
<svg version="1.0" xmlns="http://www.w3.org/2000/svg"
 width="84.000000pt" height="79.000000pt" viewBox="0 0 84.000000 79.000000"
 preserveAspectRatio="xMidYMid meet">

<g transform="translate(0.000000,79.000000) scale(0.100000,-0.100000)"
fill="#000000" stroke="none">
<path d="M377 682 c-10 -10 -17 -26 -17 -35 0 -22 43 -49 73 -45 38 5 57 -18
57 -68 0 -49 -17 -64 -69 -64 -91 0 -94 -129 -4 -146 43 -8 83 30 83 80 0 40
28 66 70 66 35 0 50 -17 50 -57 0 -60 58 -94 93 -55 36 39 4 112 -48 112 -45
0 -72 73 -42 114 12 16 17 17 36 6 13 -6 22 -8 19 -3 -41 88 -72 112 -66 51 3
-31 1 -33 -33 -36 -57 -5 -89 12 -89 47 0 49 -78 72 -113 33z"/>
<path d="M97 470 c-7 -28 8 -70 27 -70 7 0 19 7 26 16 11 13 9 20 -17 45 -30
30 -30 30 -36 9z"/>
<path d="M110 365 c-19 -22 -3 -81 31 -118 l30 -32 15 22 c15 21 18 21 43 8
15 -7 32 -25 39 -40 15 -33 15 -35 -2 -35 -19 0 -28 -14 -21 -33 15 -37 133
-74 150 -47 9 15 -20 57 -45 65 -24 8 -27 47 -4 65 13 12 9 20 -37 66 -48 48
-55 52 -69 39 -24 -22 -45 -18 -64 10 -23 36 -51 48 -66 30z"/>
<path d="M440 110 c-8 -15 -6 -21 8 -29 10 -6 29 -7 41 -4 l22 6 -22 23 c-27
29 -35 30 -49 4z"/>
</g>
</svg>
