<?xml version="1.0" encoding="utf-8"?>
<!-- Generator: Adobe Illustrator 26.3.1, SVG Export Plug-In . SVG Version: 6.00 Build 0)  -->
<svg version="1.1"
	 id="svg2" xmlns:svg="http://www.w3.org/2000/svg" xmlns:dc="http://purl.org/dc/elements/1.1/" xmlns:rdf="http://www.w3.org/1999/02/22-rdf-syntax-ns#" xmlns:cc="http://creativecommons.org/ns#"
	 xmlns="http://www.w3.org/2000/svg" xmlns:xlink="http://www.w3.org/1999/xlink" x="0px" y="0px" width="363.6px" height="69.5px"
	 viewBox="0 0 363.6 69.5" style="enable-background:new 0 0 363.6 69.5;" xml:space="preserve">
<style type="text/css">
	.st0{fill-rule:evenodd;clip-rule:evenodd;fill:url(#SVGID_1_);}
	.st1{fill-rule:evenodd;clip-rule:evenodd;fill:#898A8D;}
	.st2{fill:#003A5D;}
	.st3{fill:#E0592A;}
	
		.st4{clip-path:url(#SVGID_00000027602868022163853720000010808143290077905584_);fill-rule:evenodd;clip-rule:evenodd;fill:url(#SVGID_00000049942603357424392970000016943803690019284882_);}
</style>
<linearGradient id="SVGID_1_" gradientUnits="userSpaceOnUse" x1="24.642" y1="34.7498" x2="60.5978" y2="13.9907">
	<stop  offset="0" style="stop-color:#003A5D"/>
	<stop  offset="0.1825" style="stop-color:#043C5E"/>
	<stop  offset="0.3528" style="stop-color:#0F4362"/>
	<stop  offset="0.5182" style="stop-color:#224E69"/>
	<stop  offset="0.6807" style="stop-color:#3C5D72"/>
	<stop  offset="0.8404" style="stop-color:#5E717E"/>
	<stop  offset="0.9971" style="stop-color:#88898D"/>
	<stop  offset="1" style="stop-color:#898A8D"/>
</linearGradient>
<path class="st0" d="M41.8,13.5c5.3,2.3,11.9,1.2,10.5-1.1C51,10.4,50.8,8.3,52,7.6c1.2-0.7,3.8,0.6,5.9,2.6c2,2.2,3.3,4.8,2.6,6
	c-0.8,1.2-2.8,1-4.9-0.3c-4.2-2.8-5.7,13,2.6,11.8c1.6-0.2,3.2,0.5,4.4,2.2c5.2,7.2-2.5,14.7-8.3,8.7c-1.6-1.7-2.5-4.3-1.9-6.2
	c2.1-6.9-12.8-4.6-11.5,0.4c0.7,2.6,0,5.5-2,7.6c-3,3-7.9,2.9-10.9-0.1c-3-3-3-7.9,0-10.9c2-2,4.9-2.6,7.6-2
	c3.5,0.8,6.5-5.2,3.5-10.5c-0.6-1.1-1.6-2.8-2.8-2.4c-2.6,0.9-5.8,0.5-7.8-1.3c-2.5-2.1-2.1-5.3,0.7-7.3c2.7-1.7,6.7-1.8,9.2-0.2
	c1.8,1.3,2.6,3.2,2,5C40,11.7,40.6,13,41.8,13.5"/>
<path class="st1" d="M48.1,5.8c1-1.1,0.3-2.7-1.9-3.5c-2.3-0.9-4.8-0.3-5.4,1.1C39.6,5.8,45.9,7.5,48.1,5.8z"/>
<path class="st1" d="M63.6,27.3c1.5,0.4,2.6-1,2.3-3.3c-0.2-2.4-1.8-4.4-3.4-4.4C59.9,19.7,61.1,26.1,63.6,27.3z"/>
<polygon class="st2" points="93.5,25.8 102.5,25.8 102.5,21.1 79.4,21.1 79.4,25.8 88.4,25.8 88.4,49.6 93.5,49.6 "/>
<path class="st2" d="M121.4,38.3h-9.8l4.9-11.4L121.4,38.3z M118.9,20.9h-4.6l-12.5,28.7h5.1l2.9-6.9h13.5l2.9,6.9h5.3L118.9,20.9z"
	/>
<path class="st2" d="M154.4,30.4c0,1.5-0.5,2.6-1.6,3.5c-1.1,0.9-2.5,1.3-4.3,1.3h-7.3v-9.6h7.3c1.9,0,3.3,0.4,4.4,1.2
	C153.9,27.7,154.4,28.8,154.4,30.4 M160.4,49.6l-7.7-10.8c1-0.3,1.9-0.7,2.7-1.2c0.8-0.5,1.5-1.1,2.1-1.8c0.6-0.7,1.1-1.5,1.4-2.5
	c0.3-0.9,0.5-2,0.5-3.2c0-1.4-0.2-2.6-0.7-3.8c-0.5-1.1-1.2-2.1-2.1-2.8c-0.9-0.8-2-1.4-3.3-1.8c-1.3-0.4-2.8-0.6-4.4-0.6h-12.7
	v28.5h5v-9.9h6.3l7,9.9H160.4z"/>
<path class="st2" d="M191.1,45.7v-12h-12.1V38h7.3v5.4c-0.9,0.7-1.9,1.2-3.1,1.6c-1.2,0.4-2.4,0.6-3.8,0.6c-1.5,0-2.8-0.3-4-0.8
	c-1.2-0.5-2.2-1.2-3.1-2.1c-0.9-0.9-1.5-2-2-3.2c-0.5-1.2-0.7-2.6-0.7-4.1c0-1.4,0.2-2.7,0.7-3.9c0.5-1.2,1.1-2.3,2-3.2
	c0.8-0.9,1.8-1.7,2.9-2.2c1.1-0.5,2.3-0.8,3.6-0.8c0.9,0,1.7,0.1,2.5,0.2c0.7,0.1,1.4,0.4,2.1,0.6c0.6,0.3,1.2,0.6,1.8,1
	c0.6,0.4,1.1,0.8,1.7,1.3l3.2-3.8c-0.7-0.6-1.5-1.2-2.3-1.6c-0.8-0.5-1.6-0.9-2.5-1.2s-1.8-0.6-2.8-0.8c-1-0.2-2.1-0.3-3.4-0.3
	c-2.1,0-4.1,0.4-5.9,1.2c-1.8,0.8-3.4,1.9-4.7,3.2c-1.3,1.3-2.3,2.9-3,4.7c-0.7,1.8-1.1,3.7-1.1,5.7c0,2.1,0.4,4,1.1,5.8
	c0.7,1.8,1.7,3.3,3,4.7c1.3,1.3,2.8,2.3,4.7,3.1c1.8,0.7,3.8,1.1,6.1,1.1c1.2,0,2.4-0.1,3.6-0.3c1.1-0.2,2.2-0.5,3.2-1
	c1-0.4,1.9-0.9,2.8-1.4C189.6,46.8,190.3,46.3,191.1,45.7"/>
<polygon class="st2" points="197.6,33 197.6,49.6 218.8,49.6 218.8,45.1 202.5,45.1 202.5,37.5 216.8,37.5 216.8,33 202.5,33 "/>
<polygon class="st2" points="236.9,25.8 245.9,25.8 245.9,21.1 222.8,21.1 222.8,25.8 231.8,25.8 231.8,49.6 236.9,49.6 "/>
<path class="st3" d="M281.6,30.4c0,1.5-0.5,2.6-1.6,3.5c-1.1,0.9-2.5,1.3-4.3,1.3h-7.3v-9.6h7.3c1.9,0,3.3,0.4,4.4,1.2
	C281,27.7,281.6,28.8,281.6,30.4 M287.5,49.6l-7.7-10.8c1-0.3,1.9-0.7,2.7-1.2c0.8-0.5,1.5-1.1,2.1-1.8c0.6-0.7,1.1-1.5,1.4-2.5
	c0.3-0.9,0.5-2,0.5-3.2c0-1.4-0.2-2.6-0.7-3.8c-0.5-1.1-1.2-2.1-2.1-2.8c-0.9-0.8-2-1.4-3.3-1.8c-1.3-0.4-2.8-0.6-4.4-0.6h-12.7
	v28.5h5v-9.9h6.3l7,9.9H287.5z"/>
<polygon class="st3" points="302.2,42.2 295.4,21.1 290,21.1 299.9,49.8 304.2,49.8 311.2,29.3 318.2,49.8 322.5,49.8 332.4,21.1 
	327.2,21.1 320.4,42.2 313.4,21 309.2,21 "/>
<polygon class="st3" points="337.6,33 337.6,49.6 358.8,49.6 358.8,45.1 342.5,45.1 342.5,37.5 356.8,37.5 356.8,33 353.4,33 
	342.5,33 "/>
<polygon class="st2" points="218.6,21.1 197.6,21.1 197.6,25.6 202.5,25.6 216.8,25.6 218.6,25.6 "/>
<polygon class="st3" points="358.6,21.1 337.6,21.1 337.6,25.6 342.5,25.6 353.4,25.6 358.6,25.6 "/>
<g>
	<defs>
		<path id="SVGID_00000047052276470426909840000011282452639199958669_" d="M41.7,57.1c5.4-0.4,9.9-4.6,10.5-9.6
			c0.2-2.6-0.7-5-2.3-6.7c-1-1.1-2.3-1.7-3.9-1.6c-2.8,0.1-3.2,1.7-4.8,3.3c-4,3.9-10.5,4.2-14.8,0.4c-0.7-0.6-1.3-1.2-1.8-2
			c-3-4.3-2.5-10.1,1.2-13.8c1.6-1.6,3.1-2,3.3-4.7c0.1-1.5-0.4-2.8-1.4-3.8c-1.8-1.8-4.4-2.9-7.2-2.7c-5,0.4-9.2,5.1-9.6,10.4
			c-0.1,5.1,2.7,7.5,4.4,8.7c1,0.7,1.4,1.8,1.2,3c-0.6,3.5-3.1,5.8-6.1,5.5l-0.2,0c-1.3-3.8-4.1-6.7-6.7-6.9
			c-2.4-0.3-3.3,2.9-2.5,6.9c1.2,3.7,3.4,7.6,5.5,9c2.3,1,4.1-0.3,4.4-3.2l0.2,0c3.3,0.6,6.7,4,7.3,7.3l0,0.2
			c-2.8,0.3-4.2,2.2-3.2,4.5c1.4,2.1,5.4,4.3,9,5.5c4.1,0.8,7.2-0.1,6.9-2.5c-0.2-2.6-3.1-5.4-6.9-6.7l0-0.2c-0.3-3,2-5.5,5.5-6.1
			c1.2-0.2,2.3,0.3,3,1.2C34.2,54.4,36.6,57.3,41.7,57.1z M48.5,61.9c0.3,1.5,2.1,1.8,4,0.4c2-1.4,3-3.7,2.2-5.1
			C53.3,54.9,48.3,59.1,48.5,61.9 M33.9,64.1c-0.4,2.6,2.2,4.2,6.1,3.2c4.1-0.9,7.2-4.1,6.7-6.7C46,56.1,35.4,59.5,33.9,64.1z
			 M8.6,21.6c-1.8-2.2-5.1-1.2-7.1,2.7c-2.3,4-1.9,8.8,0.6,10.5C6.3,37.4,11.3,26.1,8.6,21.6z M11.7,12.8c-0.3-1.5-2.1-1.8-4-0.4
			c-2,1.3-3,3.7-2.2,5.1C6.8,19.7,11.8,15.6,11.7,12.8z M24.9,5.9c0.1-2.6-2.7-3.8-6.4-2.4C14.6,4.9,12,8.4,12.8,11
			C14,15.3,24,10.6,24.9,5.9z M55.4,53.5c1.2,2.3,4.3,1.9,6.7-1.2c2.7-3.2,3.2-7.5,1.3-9.3C60.1,39.8,53.9,49,55.4,53.5z"/>
	</defs>
	<clipPath id="SVGID_00000005244003294830290110000015737332148949387150_">
		<use xlink:href="#SVGID_00000047052276470426909840000011282452639199958669_"  style="overflow:visible;"/>
	</clipPath>
	
		<linearGradient id="SVGID_00000003807261852133381570000003267049752993339836_" gradientUnits="userSpaceOnUse" x1="259.5418" y1="36.7477" x2="365.219" y2="36.7477" gradientTransform="matrix(-0.3916 0.3916 -0.7071 -0.7071 180.0959 -57.8341)">
		<stop  offset="0" style="stop-color:#DD8A03"/>
		<stop  offset="0.2685" style="stop-color:#DD8507"/>
		<stop  offset="0.5836" style="stop-color:#DE7712"/>
		<stop  offset="0.9209" style="stop-color:#DF5F25"/>
		<stop  offset="1" style="stop-color:#E0592A"/>
	</linearGradient>
	
		<polygon style="clip-path:url(#SVGID_00000005244003294830290110000015737332148949387150_);fill-rule:evenodd;clip-rule:evenodd;fill:url(#SVGID_00000003807261852133381570000003267049752993339836_);" points="
		-19.2,29 22.2,-12.4 82.7,48.1 41.3,89.4 	"/>
</g>
</svg>
